<svg width="37" height="37" viewBox="0 0 37 37" fill="none" xmlns="http://www.w3.org/2000/svg">
<g opacity="0.8">
<path d="M25.2795 8.97485L20.6296 5.37485C20.0296 4.77485 18.6796 4.47485 17.7796 4.47485H12.0796C10.2796 4.47485 8.3296 5.82485 7.8796 7.62485L4.2796 18.5749C3.5296 20.6749 4.8796 22.4749 7.1296 22.4749H13.1296C14.0296 22.4749 14.7796 23.2249 14.6296 24.2749L13.8796 29.0749C13.5796 30.4249 14.4796 31.9249 15.8296 32.3749C17.0296 32.8249 18.5296 32.2249 19.1296 31.3249L25.2795 22.1749" stroke="#718096" stroke-width="2.25" stroke-miterlimit="10"/>
<path d="M32.9287 8.975V23.675C32.9287 25.775 32.0287 26.525 29.9287 26.525H28.4287C26.3287 26.525 25.4287 25.775 25.4287 23.675V8.975C25.4287 6.875 26.3287 6.125 28.4287 6.125H29.9287C32.0287 6.125 32.9287 6.875 32.9287 8.975Z" stroke="#718096" stroke-width="2.25" stroke-linecap="round" stroke-linejoin="round"/>
</g>
</svg>
