<svg xmlns="http://www.w3.org/2000/svg" height="109.9" width="128" viewBox="0 -32 96 82.4"><path d="M87.2-32H8.8C4-32 0-26.8 0-20.5v59.4c0 6.3 4 11.5 8.8 11.5h78.4c4.8 0 8.8-5.2 8.8-11.5v-59.4c0-6.3-4-11.5-8.8-11.5zm-.3 69.3c0 2.1-1.3 3.8-3 3.8H12c-1.6 0-2.9-1.7-2.9-3.8V-2.4c0-2.1 1.3-3.8 3-3.8h72c1.6 0 2.9 1.7 2.9 3.8z" fill="#343434"/><g fill="#343434"><path d="M33.3-4c-1.8-1.4-6-1.2-7.5.6L10.5 14.8a4.2 4.2 0 0 0 0 5.3l15.3 18.3c1.5 1.7 5.7 2 7.5.5s2-4.1.5-5.9L20.4 17.4 33.8 2a4.2 4.2 0 0 0-.5-5.8zM70.7-3.4c-1.5-1.8-5.8-2-7.5-.5s-2 4-.6 5.8l13 15.5-13 15.5a4.2 4.2 0 0 0 .6 5.9c1.7 1.5 6 1.2 7.5-.5l15-18.1a4.2 4.2 0 0 0 0-5.4zM56.7-4.6c-2.2-.9-5.3.2-6.1 2.3l-15 36.5c-.8 2.1 1 4.5 3 5.4 2.2.8 5.6-.2 6.4-2.4L60 .8c.8-2.1-1.2-4.6-3.3-5.4z"/></g></svg>