<svg width="37" height="37" viewBox="0 0 37 37" fill="none" xmlns="http://www.w3.org/2000/svg">
<g opacity="0.8">
<path d="M11.7207 28.025L16.3707 31.625C16.9707 32.225 18.3207 32.525 19.2207 32.525H24.9207C26.7207 32.525 28.6707 31.175 29.1207 29.375L32.7207 18.425C33.4707 16.325 32.1207 14.525 29.8707 14.525H23.8707C22.9707 14.525 22.2207 13.775 22.3707 12.725L23.1207 7.92495C23.4207 6.57495 22.5207 5.07495 21.1707 4.62495C19.9707 4.17495 18.4707 4.77495 17.8707 5.67495L11.7207 14.825" stroke="#718096" stroke-width="2.25" stroke-miterlimit="10"/>
<path d="M4.07129 28.0249V13.3249C4.07129 11.2249 4.97129 10.4749 7.07129 10.4749H8.57129C10.6713 10.4749 11.5713 11.2249 11.5713 13.3249V28.0249C11.5713 30.1249 10.6713 30.8749 8.57129 30.8749H7.07129C4.97129 30.8749 4.07129 30.1249 4.07129 28.0249Z" stroke="#718096" stroke-width="2.25" stroke-linecap="round" stroke-linejoin="round"/>
</g>
</svg>
